<?xml version="1.0" standalone="no"?><!DOCTYPE svg PUBLIC "-//W3C//DTD SVG 1.1//EN" "http://www.w3.org/Graphics/SVG/1.1/DTD/svg11.dtd"><svg t="1686627276901" class="icon" viewBox="0 0 1024 1024" version="1.1" xmlns="http://www.w3.org/2000/svg" p-id="1738" xmlns:xlink="http://www.w3.org/1999/xlink" width="200" height="200"><path d="M595.4816 0H54.4512C24.4992 0 0 24.5248 0 54.4768v915.072C0 999.5008 24.4992 1024 54.4512 1024H732.9792c29.952 0 54.4768-24.4992 54.4768-54.4512V192L595.4816 0z" fill="#3BAFDA" p-id="1739"></path><path d="M595.4816 0v192h192z" fill="#7AC3E1" p-id="1740"></path><path d="M595.4816 192l192 192V192z" fill="#26A1C6" p-id="1741"></path><path d="M199.936 387.5584c11.392-25.3184 22.144-60.8 32.3072-106.3936l55.0912 22.8096a1335.5264 1335.5264 0 0 1-27.5456 81.6896 470.272 470.272 0 0 1-29.44 62.6944c-11.392 20.2752-31.0528 45.5936-58.9056 76.0064a353.024 353.024 0 0 0-20.8896-64.5888l32.3072-34.2016c-0.0256-0.0256 5.6832-12.672 17.0752-38.016z m62.72 188.0832c0 77.2864 1.2544 132.352 3.7888 165.2992H205.6448c2.5344-32.9472 3.7888-143.1296 3.7888-330.5984l57.0112 3.7888-3.7888 45.5936v115.9168z m182.4-275.4816c-2.56 20.2752-3.7888 46.8736-3.7888 79.7952 0 32.9472 1.2544 59.5456 3.7888 79.7952-20.2752-2.5344-51.9424-3.7888-95.0016-3.7888 0 154.5472 1.2544 248.2432 3.7888 281.1904h-57.0112c2.5344-32.9472 3.7888-105.7536 3.7888-218.496 0-112.7168-1.28-185.5488-3.7888-218.496 20.2496 2.56 59.52 3.7888 117.8112 3.7888l30.4128-3.7888zM370.944 505.344c16.4608 0 34.816-1.2544 55.0912-3.7888v53.1968c-20.2752-2.5344-46.8736-3.7888-79.7952-3.7888V505.344h24.704z m3.8144 95.0016c18.9952 0 38.6304-1.2544 58.9056-3.7888v53.1968c-20.2752-2.5344-49.408-3.7888-87.3984-3.7888v-45.5936c-0.0256-0.0256 9.472-0.0256 28.4928-0.0256z m-24.704-190.0032h41.8048v-60.8h-41.8048v60.8z m97.8432 248.9088a282.7008 282.7008 0 0 0 47.488-39.9104c14.5408-15.2064 30.6944-43.0592 48.4608-83.6096-50.6624 0-86.144 1.28-106.3936 3.7888v-53.1968c20.2496 2.56 73.4464 3.7888 159.5904 3.7888l11.392 11.392c0 2.56-2.56 11.392-7.6032 26.5984a495.5136 495.5136 0 0 1-20.8896 51.3024c-8.8832 18.9952-22.5024 40.5504-40.8576 64.5888-18.3808 24.0384-35.4816 41.8048-51.3024 53.1968-15.8464 11.392-41.4976 25.9584-76.9536 43.6992a523.136 523.136 0 0 0-26.5984-53.1968l37.9904-11.392c0.0256 0.0512 8.576-5.6576 25.6768-17.0496z m149.1456 81.6896c-27.8784-13.952-49.408-27.5456-64.5888-40.8576s-25.984-23.7568-32.3072-31.36c-6.3488-7.6032-13.952-18.9952-22.8096-34.2016-8.8832-15.2064-19.6608-40.5248-32.3072-76.0064l41.8048-22.8096c15.2064 35.4816 27.8528 61.44 37.9904 77.9008 10.1376 16.4864 20.8896 29.1584 32.3072 37.9904s34.2016 19.6352 68.4032 32.3072l-17.1008 26.5984-11.392 30.4384z m3.8144-440.7808c-2.56 20.2752-3.7888 47.488-3.7888 81.6896s1.2544 61.44 3.7888 81.6896c-20.2752-2.5344-44.3392-3.7888-72.192-3.7888-27.8784 0-51.9424 1.28-72.192 3.7888v-53.1968c20.2496 2.56 50.6624 3.7888 91.2128 3.7888v-64.5888c-43.0848 0-74.752 1.28-95.0016 3.7888v-53.1968c20.2496 2.56 59.52 3.7888 117.8112 3.7888l30.3616-3.7632z" fill="#EFF2F4" p-id="1742"></path><path d="M479.9744 472.4736c-2.6112 2.6112-4.6848 5.5296-7.0912 8.2176l18.8928-18.8928c-3.9936 3.4816-7.9872 6.8864-11.8016 10.6752z" fill="#31BBF6" p-id="1743"></path><path d="M1010.8928 943.6416l-224.0512-224.0512-48.9984 48.9984-14.2592 14.2592 224.0512 224.0768c12.3136 12.3136 29.952 15.4624 45.4656 10.4192 6.4512-2.1248 12.672-5.2736 17.792-10.4192a44.7232 44.7232 0 0 0 0-63.2832z" fill="#F9C82D" p-id="1744"></path><path d="M804.3264 485.248c-3.7376-4.3264-7.4752-8.6784-11.5712-12.7744-83.5584-83.5584-216.6528-86.9632-304.512-10.6752l-18.8928 18.8928c-4.1728 4.7104-8.5248 9.3184-12.288 14.2592-67.1488 87.68-60.8256 213.5808 19.4048 293.8112 4.096 4.096 8.448 7.8336 12.7744 11.5456a223.5904 223.5904 0 0 0 285.696 4.3776c6.144-4.9408 12.1344-10.2144 17.8432-15.9232 83.2256-83.2256 86.9632-215.6288 11.5456-303.5136z" fill="#F9C82D" p-id="1745"></path><path d="M772.0704 517.4784c-3.6608-4.4544-6.784-9.216-10.9312-13.3888a178.944 178.944 0 0 0-253.056 0 176.384 176.384 0 0 0-18.4576 22.6048c-50.2016 69.9136-44.3904 167.6032 18.4576 230.4512 4.1728 4.1728 8.9344 7.2704 13.3888 10.9312a178.0992 178.0992 0 0 0 220.6976 4.736c6.4768-4.9152 13.0304-9.728 18.9696-15.6672 65.7152-65.7152 68.8128-169.3696 10.9312-239.6672z" fill="#F8FCFF" p-id="1746"></path><path d="M717.7472 554.496l-105.6768 105.7024-2.9184 2.9184-8.5504-8.5504-1.5104-1.5104-47.744-47.6928-21.4528 21.4016 49.28 49.2544 0.2048 0.2048 29.7728 29.7728 22.8864-22.8864 107.1616-107.1616z" fill="#8CC152" p-id="1747"></path></svg>